# xmcd
#
# Track frame offsets: 
#        150
#        29302
#        54012
#        71055
#        90760
#        136060
#        166493
#        190237
#        215350
#        252133
#        277373
#        298668
#
# Disc length: 4231 seconds
#
# Revision: 0
# Processed by: cddbd v1.5.2PL0 Copyright (c) Steve Scherf et al.
# Submitted via: ExactAudioCopyFreeDBPlugin 1.0
#
DISCID=aa10850c
DTITLE=JOSEPH HAYDN - JOSEPH HAYDN Gewndhaus-Quartett
DYEAR=2004
DGENRE=Classical
TTITLE0=Gewandhaus-Quartet - String quartet in d Op76-2 HOB.III:76 Qui
TTITLE0=ntenquartett (Fifth) 1
TTITLE1=Gewandhaus-Quartet - String quartet in d Op76-2 HOB.III:76 Qui
TTITLE1=ntenquartett (Fifth) 2
TTITLE2=Gewandhaus-Quartet - String quartet in d Op76-2 HOB.III:76 Qui
TTITLE2=ntenquartett (Fifth) 3
TTITLE3=Gewandhaus-Quartet - String quartet in d Op76-2 HOB.III:76 Qui
TTITLE3=ntenquartett (Fifth) 4
TTITLE4=Gewandhaus-Quartet - String quartet in C Op76-3 HOB.III:77 Kai
TTITLE4=serquartett(Emperor) 1
TTITLE5=Gewandhaus-Quartet - String quartet in C Op76-3 HOB.III:77 Kai
TTITLE5=serquartett(Emperor) 2
TTITLE6=Gewandhaus-Quartet - String quartet in C Op76-3 HOB.III:77 Kai
TTITLE6=serquartett(Emperor) 3
TTITLE7=Gewandhaus-Quartet - String quartet in C Op76-3 HOB.III:77 Kai
TTITLE7=serquartett(Emperor) 4
TTITLE8=Gewandhaus-Quartet - String quartet in B Op76-4 HOB.III:78 Der
TTITLE8=Sonnenaufgang(Sunrise) 1
TTITLE9=Gewandhaus-Quartet - String quartet in B Op76-4 HOB.III:78 Der
TTITLE9=Sonnenaufgang(Sunrise) 2
TTITLE10=Gewandhaus-Quartet - String quartet in B Op76-4 HOB.III:78 De
TTITLE10=r Sonnenaufgang(Sunrise) 3
TTITLE11=Gewandhaus-Quartet - String quartet in B Op76-4 HOB.III:78 De
TTITLE11=r Sonnenaufgang(Sunrise) 4
EXTD=
EXTT0=
EXTT1=
EXTT2=
EXTT3=
EXTT4=
EXTT5=
EXTT6=
EXTT7=
EXTT8=
EXTT9=
EXTT10=
EXTT11=
PLAYORDER=
